# xmcd
#
# Track frame offsets:
#	150
#	16232
#	34295
#	53585
#	70982
#	87880
#	104817
#	120737
#	138187
#	150430
#	165280
#	182512
#	200482
#	217940
#	233042
#	251432
#	268375
#	282230
#	297565
#	312962
#
# Disc length: 4390 seconds
#
# Revision: 2
# Processed by: cddbd v1.5.2PL0 Copyright (c) Steve Scherf et al.
# Submitted via: audiograbber 1.83.01
#
DISCID=1d112414
DTITLE=Forró da Brucelose and Gilson Neto - Volume 6
DYEAR=2000
DGENRE=Forró
TTITLE0=Fala a Verdade
TTITLE1=Saudade de Você
TTITLE2=Diferença do Amor
TTITLE3=Veneno Fatal
TTITLE4=Uma Beira de Mar
TTITLE5=Cavalo do Cão
TTITLE6=O Homem Quando Ama
TTITLE7=Caliente Sensação
TTITLE8=Chuva Miúda
TTITLE9=Vontade Louca
TTITLE10=Como Eu Te Amei
TTITLE11=6 Mãos 6 Asas
TTITLE12=Monogâmicos
TTITLE13=Braço Forte
TTITLE14=Princesa
TTITLE15=Com Água Na Boca
TTITLE16=Pra Dizer
TTITLE17=Solidão No Peito
TTITLE18=Tempo de Luta
TTITLE19=Casamento Por Acaso
EXTD=dayvisondj@hotmail.com\nDayvison DJ Is Of Recife - PE - Brazil\n8690-4073
EXTT0=
EXTT1=
EXTT2=
EXTT3=
EXTT4=
EXTT5=
EXTT6=
EXTT7=
EXTT8=
EXTT9=
EXTT10=
EXTT11=
EXTT12=
EXTT13=
EXTT14=
EXTT15=
EXTT16=
EXTT17=
EXTT18=
EXTT19=
PLAYORDER=
